<?xml version="1.0" encoding="UTF-8"?>
<svg width="50px" height="50px" viewBox="0 0 50 50" version="1.1" xmlns="http://www.w3.org/2000/svg" xmlns:xlink="http://www.w3.org/1999/xlink">
    <!-- Generator: Sketch 48.1 (47250) - http://www.bohemiancoding.com/sketch -->
    <title>icon-zalopay</title>
    <desc>Created with Sketch.</desc>
    <defs></defs>
    <g id="THANH-TOAN" stroke="none" stroke-width="1" fill="none" fill-rule="evenodd" transform="translate(-423.000000, -255.000000)">
        <g id="Group-6" transform="translate(404.000000, 121.500000)">
            <g id="Group-5" transform="translate(0.000000, 117.000000)">
                <g id="icon-zalopay" transform="translate(19.000000, 16.500000)">
                    <path d="M9.31508242,8.20188187 L45.9557418,2.84611264 C43.911511,1.07440934 41.2466758,9.61538462e-05 38.3293681,9.61538462e-05 L11.6540934,9.61538462e-05 C5.21769231,9.61538462e-05 0.00010989011,5.21767857 0.00010989011,11.654217 L0.00010989011,38.3293544 C0.00010989011,44.115206 4.21728022,48.9138324 9.74489011,49.8252335 L4.90739011,14.1544918 C4.4985989,11.291717 6.49777473,8.6109478 9.31508242,8.20188187" id="Fill-1" fill="#00A2E6"></path>
                    <path d="M45.9557692,2.84607143 L9.31510989,8.20184066 C6.4978022,8.61090659 4.49848901,11.2916758 4.90741758,14.1544505 L9.74491758,49.8251923 C10.3663462,49.9276648 11.0037088,49.9834341 11.6541209,49.9834341 L38.3292582,49.9834341 C44.7657967,49.9834341 49.9833791,44.7657143 49.9833791,38.3293132 L49.9833791,11.6541758 C49.9833791,8.13521978 48.4215659,4.98302198 45.9557692,2.84607143" id="Fill-3" fill="#FFFFFF"></path>
                    <path d="M45.9498626,2.84218407 L45.8223901,2.86553571 C48.3388736,5.0659478 49.8462912,8.30578297 49.8462912,11.6428709 L49.8462912,38.2783104 C49.8462912,44.6568819 44.6568681,49.8463049 38.2781593,49.8463049 L11.6428571,49.8463049 C11.0340659,49.8463049 10.3416209,49.7825687 9.72568681,49.6836676 L9.74491758,49.8251511 C10.384478,49.930783 11.0101648,49.9833929 11.6428571,49.9833929 L38.2781593,49.9833929 C44.7325549,49.9833929 49.9833791,44.7325687 49.9833791,38.2783104 L49.9833791,11.6428709 C49.9833791,8.24864011 48.5210165,5.07020604 45.9498626,2.84218407" id="Fill-5" fill="#00A2E6"></path>
                    <path d="M28.6732967,21.6396703 C28.4007692,22.0031319 27.9917033,22.185 27.4918407,22.185 C26.9921154,22.185 26.5830495,22.0031319 26.310522,21.6396703 C26.0378571,21.2762088 25.8561264,20.8218132 25.8561264,20.2310165 C25.8561264,19.6856868 25.9923901,19.2314286 26.310522,18.8678297 C26.5830495,18.5043681 26.9921154,18.3226374 27.4918407,18.3226374 C27.9917033,18.3226374 28.4007692,18.5043681 28.6732967,18.8678297 C28.9459615,19.2314286 29.1278297,19.6856868 29.1278297,20.2310165 C29.0823626,20.7763462 28.9459615,21.2762088 28.6732967,21.6396703 M31.1270055,16.5958516 C30.8998077,16.3686538 30.6272802,16.2323901 30.2636813,16.2323901 C29.7638187,16.2323901 29.4003571,16.4595879 29.1731593,16.9594505 C28.6732967,16.3687912 27.9917033,16.0961264 27.1283791,16.0961264 C26.0833242,16.0961264 25.2198626,16.5050549 24.4928022,17.2774451 C23.7658791,18.0954396 23.4477473,19.0496978 23.4477473,20.1856868 C23.4477473,21.3216758 23.8112088,22.3212637 24.4928022,23.0937912 C25.2198626,23.9116484 26.0833242,24.2752473 27.1283791,24.2752473 C27.9917033,24.2752473 28.6732967,24.0025824 29.1731593,23.4117857 C29.4003571,23.9116484 29.7638187,24.1388462 30.2636813,24.1388462 C30.6272802,24.1388462 30.8998077,24.0025824 31.1270055,23.7753846 C31.3543407,23.5481868 31.4451374,23.275522 31.4451374,22.9120604 L31.4451374,17.3229121 C31.4906044,17.1411813 31.3543407,16.8231868 31.1270055,16.5958516" id="Fill-7" fill="#00A2E6"></path>
                    <path d="M34.1715522,23.8661813 C33.9443544,24.0933791 33.6716896,24.2296429 33.308228,24.2296429 C32.9446291,24.2296429 32.6719643,24.0933791 32.4447665,23.8661813 C32.2175687,23.6391209 32.1266346,23.3663187 32.1266346,23.0028571 L32.1266346,13.0061538 C32.1266346,12.6881593 32.2175687,12.4154945 32.4447665,12.1428297 C32.6719643,11.9156319 32.9446291,11.7793681 33.308228,11.7793681 C33.6715522,11.7793681 33.9443544,11.9156319 34.1715522,12.1428297 C34.3986126,12.3700275 34.4895467,12.6426923 34.4895467,13.0061538 L34.4895467,23.0028571 C34.4895467,23.3663187 34.3986126,23.6391209 34.1715522,23.8661813" id="Fill-9" fill="#00A2E6"></path>
                    <path d="M40.3512637,21.6396703 C40.0787363,22.0031319 39.6696703,22.185 39.1698077,22.185 C38.6700824,22.185 38.2610165,22.0031319 37.988489,21.6396703 C37.7158242,21.2762088 37.533956,20.8218132 37.533956,20.2310165 C37.533956,19.6856868 37.6703571,19.2314286 37.988489,18.8678297 C38.2610165,18.5043681 38.6700824,18.3226374 39.1698077,18.3226374 C39.6696703,18.3226374 40.0787363,18.5043681 40.3512637,18.8678297 C40.6237912,19.2314286 40.8056593,19.6856868 40.8056593,20.2310165 C40.7603297,20.7763462 40.6239286,21.2762088 40.3512637,21.6396703 M42.0324451,17.3229121 C41.2600549,16.5050549 40.3057967,16.1415934 39.1243407,16.1415934 C37.943022,16.1415934 36.9887637,16.5503846 36.2162363,17.3229121 C35.4891758,18.0954396 35.0802473,19.0951648 35.0802473,20.2764835 C35.0802473,21.4579396 35.4437088,22.4121978 36.2162363,23.2300549 C36.9431593,24.0025824 37.943022,24.411511 39.1243407,24.411511 C40.3057967,24.411511 41.2600549,24.0025824 42.0324451,23.2300549 C42.7595055,22.4575275 43.1231044,21.4579396 43.1231044,20.3219505 C43.1685714,19.0951648 42.8049725,18.0954396 42.0324451,17.3229121" id="Fill-11" fill="#00A2E6"></path>
                    <path d="M22.1300549,16.4141209 C22.9479121,15.3235989 23.4024451,14.5966758 23.4024451,14.2330769 C23.4024451,13.3697527 22.8571154,12.9152198 21.7665934,12.9152198 L15.9957143,12.9152198 C15.5413187,12.9152198 15.1778571,13.0061538 14.950522,13.233489 C14.7234615,13.4605495 14.5870604,13.7332143 14.5870604,14.0513462 C14.5870604,14.4148077 14.7234615,14.6874725 14.950522,14.8692033 C15.1778571,15.0964011 15.5413187,15.1871978 15.9957143,15.1871978 L19.949011,15.1871978 L14.8597253,21.7306044 C14.5417308,22.139533 14.36,22.5484615 14.36,22.8665934 C14.36,23.8208516 14.995989,24.2752473 16.2683791,24.2752473 L22.2208516,24.2752473 C23.1751099,24.2752473 23.6295055,23.8661813 23.6295055,23.0937912 C23.6295055,22.2759341 23.1751099,21.9123352 22.2208516,21.9123352 L17.8587637,21.9123352 L22.1300549,16.4141209 Z" id="Fill-13" fill="#00A2E6"></path>
                    <path d="M19.3127747,30.5458379 L17.8133242,30.5458379 L17.8133242,33.6356731 L19.3127747,33.6356731 C19.7671703,33.6356731 20.1306319,33.4994093 20.4032967,33.1814148 C20.6759615,32.9086126 20.8123626,32.4998214 20.8123626,32.0907555 C20.8123626,31.6363599 20.6759615,31.2728984 20.4032967,31.0002335 C20.1306319,30.6821016 19.7671703,30.5458379 19.3127747,30.5458379" id="Fill-15" fill="#04BE04"></path>
                    <path d="M26.7193681,33.4084615 C26.2649725,33.4084615 25.901511,33.5901923 25.6289835,33.9084615 C25.3561813,34.2717857 25.2199176,34.6808516 25.2199176,35.1805769 C25.2199176,35.6804396 25.3561813,36.1349725 25.6289835,36.452967 C25.901511,36.8165659 26.2649725,36.9528297 26.7193681,36.9528297 C27.1739011,36.9528297 27.5373626,36.7709615 27.8098901,36.452967 C28.0826923,36.0895055 28.218956,35.6804396 28.218956,35.1805769 C28.218956,34.6808516 28.0826923,34.226456 27.8098901,33.9084615 C27.5373626,33.5901923 27.1739011,33.4084615 26.7193681,33.4084615" id="Fill-17" fill="#04BE04"></path>
                    <path d="M30.3999863,37.8161401 C30.3999863,38.1341346 30.3091896,38.3614698 30.0819918,38.5886676 C29.854794,38.815728 29.6275962,38.9066621 29.3096016,38.9066621 C28.8550687,38.9066621 28.4914698,38.6794643 28.2644093,38.225206 C27.8100137,38.7703984 27.1738874,39.0430632 26.3560302,39.0430632 C25.4016346,39.0430632 24.5837775,38.6794643 23.9475137,37.9524038 C23.3115247,37.2254808 22.9479258,36.3166896 22.9479258,35.2261676 C22.9479258,34.1355082 23.2659203,33.2721841 23.9475137,32.499794 C24.5837775,31.7727335 25.4016346,31.4091346 26.3560302,31.4091346 C27.1738874,31.4091346 27.7644093,31.6819368 28.2644093,32.2271291 C28.4914698,31.7727335 28.809739,31.5455357 29.3096016,31.5455357 C29.6275962,31.5455357 29.9001236,31.6364698 30.0819918,31.8635302 C30.3091896,32.090728 30.3999863,32.3180632 30.3999863,32.6360577 L30.3999863,37.8161401 Z M21.9938049,34.5900412 C21.3122115,35.2261676 20.4488874,35.4986951 19.4490247,35.4986951 L17.8133104,35.4986951 L17.8133104,37.8616071 C17.8133104,38.225206 17.7223764,38.4977335 17.4953159,38.6794643 C17.3134478,38.8611951 17.040783,38.9975962 16.7227885,38.9975962 C16.4046566,38.9975962 16.1321291,38.9066621 15.9503984,38.6794643 C15.7685302,38.4977335 15.6321291,38.1796016 15.6321291,37.8616071 L15.6321291,29.6824863 C15.6321291,28.9099588 15.995728,28.5464973 16.7682555,28.5464973 L19.358228,28.5464973 C20.4488874,28.5464973 21.3122115,28.8646291 22.039272,29.5007555 C22.7208654,30.1368819 23.0843269,31.000206 23.0843269,31.9999313 C23.0841896,33.1359203 22.7208654,33.9537775 21.9938049,34.5900412 Z M37.1704533,26.1381181 L15.6775962,26.1381181 C14.9505357,26.1381181 14.3598764,26.7289148 14.3598764,27.4559753 L14.3598764,40.0426511 C14.3598764,40.7697115 14.9505357,41.3605082 15.6775962,41.3605082 L32.6266346,41.3605082 C32.4447665,41.1786401 32.3539698,40.9969093 32.3539698,40.7697115 C32.3539698,40.5879808 32.3994368,40.4061126 32.4902335,40.1790522 L33.308228,38.4069368 L31.0815797,32.8632555 C31.03625,32.7268544 30.990783,32.5451236 30.990783,32.3633929 C30.990783,32.1361951 31.0815797,31.9089973 31.3087775,31.7727335 C31.4905082,31.5910027 31.7178434,31.5000687 31.9449038,31.5000687 C32.4447665,31.5000687 32.7628984,31.7272665 32.9446291,32.2271291 L34.3078159,35.9986951 L35.7619368,32.2271291 C35.9436676,31.7727335 36.2617995,31.5000687 36.7616621,31.5000687 C36.9888599,31.5000687 37.2159203,31.5910027 37.3976511,31.7727335 C37.5795192,31.9544643 37.7159203,32.1361951 37.7159203,32.3633929 C37.7159203,32.5451236 37.6704533,32.7268544 37.6249863,32.8632555 L34.353283,40.8151786 C34.2623489,41.0423764 34.1715522,41.2242445 34.0352885,41.3605082 L37.1705907,41.3605082 C37.8975137,41.3605082 38.4883104,40.7697115 38.4883104,40.0426511 L38.4883104,27.4559753 C38.4883104,26.6834478 37.8975137,26.1381181 37.1704533,26.1381181 Z" id="Fill-19" fill="#04BE04"></path>
                </g>
            </g>
        </g>
    </g>
</svg>