<?xml version="1.0" encoding="UTF-8"?>
<svg width="36px" height="50px" viewBox="0 0 36 50" version="1.1" xmlns="http://www.w3.org/2000/svg" xmlns:xlink="http://www.w3.org/1999/xlink">
    <!-- Generator: Sketch 48.1 (47250) - http://www.bohemiancoding.com/sketch -->
    <title>icon-phonenumber</title>
    <desc>Created with Sketch.</desc>
    <defs></defs>
    <g id="THANH-TOAN" stroke="none" stroke-width="1" fill="none" fill-rule="evenodd" transform="translate(-558.000000, -258.000000)">
        <g id="Group-6" transform="translate(404.000000, 121.500000)" fill="#00A2E6">
            <g id="Group-3" transform="translate(128.000000, 117.000000)">
                <g id="icon-phonenumber" transform="translate(26.456140, 19.416667)">
                    <path d="M3.96999501,1.36549708 C2.58443854,1.36549708 1.46122308,2.48871253 1.46122308,3.87426901 L1.46122308,45.9795322 C1.46122308,47.3650886 2.58443854,48.4883041 3.96999501,48.4883041 L31.1177243,48.4883041 C32.5032808,48.4883041 33.6264962,47.3650886 33.6264962,45.9795322 L33.6264962,3.87426901 C33.6264962,2.48871253 32.5032808,1.36549708 31.1177243,1.36549708 L3.96999501,1.36549708 Z M3.96999501,0.365497076 L31.1177243,0.365497076 C33.0555655,0.365497076 34.6264962,1.93642778 34.6264962,3.87426901 L34.6264962,45.9795322 C34.6264962,47.9173734 33.0555655,49.4883041 31.1177243,49.4883041 L3.96999501,49.4883041 C2.03215379,49.4883041 0.461223083,47.9173734 0.461223083,45.9795322 L0.461223083,3.87426901 C0.461223083,1.93642778 2.03215379,0.365497076 3.96999501,0.365497076 Z" id="Rectangle" fill-rule="nonzero"></path>
                    <path d="M1.46122308,7.80563764 L1.46122308,40.9170144 L33.6264962,40.9170144 L33.6264962,7.80563764 L1.46122308,7.80563764 Z M0.461223083,6.80563764 L34.6264962,6.80563764 L34.6264962,41.9170144 L0.461223083,41.9170144 L0.461223083,6.80563764 Z" id="Rectangle-Copy" fill-rule="nonzero"></path>
                    <path d="M17.6143993,31.1472356 L18.3856322,27.3569077 L15.3007003,27.3569077 L14.5294674,31.1472356 L13.1939176,31.1472356 L13.9557453,27.3569077 L11.7549097,27.3569077 L12.0182576,26.0025474 L14.247309,26.0025474 L14.9338944,22.5790254 L12.6107902,22.5790254 L12.8835433,21.2340704 L15.2066475,21.2340704 L15.9684752,17.5754164 L17.304025,17.5754164 L16.5704132,21.2340704 L19.6365345,21.2340704 L20.3983622,17.5754164 L21.7433172,17.5754164 L20.9908948,21.2340704 L23.3328096,21.2340704 L23.0694617,22.5790254 L20.7087364,22.5790254 L20.0033404,26.0025474 L22.4581185,26.0025474 L22.1947707,27.3569077 L19.7305873,27.3569077 L18.9593543,31.1472356 L17.6143993,31.1472356 Z M15.5640482,26.0307632 L18.6677906,26.0307632 L19.3731866,22.5602149 L16.2694442,22.5602149 L15.5640482,26.0307632 Z" id="#"></path>
                    <path d="M14.9122807,44.3979097 C14.4956448,44.3979097 14.1578947,44.7356598 14.1578947,45.1522957 C14.1578947,45.5689315 14.4956448,45.9066816 14.9122807,45.9066816 L20.1754386,45.9066816 C20.5920745,45.9066816 20.9298246,45.5689315 20.9298246,45.1522957 C20.9298246,44.7356598 20.5920745,44.3979097 20.1754386,44.3979097 L14.9122807,44.3979097 Z M14.9122807,43.3979097 L20.1754386,43.3979097 C21.1443592,43.3979097 21.9298246,44.1833751 21.9298246,45.1522957 C21.9298246,46.1212163 21.1443592,46.9066816 20.1754386,46.9066816 L14.9122807,46.9066816 C13.9433601,46.9066816 13.1578947,46.1212163 13.1578947,45.1522957 C13.1578947,44.1833751 13.9433601,43.3979097 14.9122807,43.3979097 Z" id="Rectangle-3" fill-rule="nonzero"></path>
                </g>
            </g>
        </g>
    </g>
</svg>